<svg width="2851" height="705" viewBox="0 0 2851 705" fill="none" xmlns="http://www.w3.org/2000/svg">
<path d="M2555.38 558.613C2607.56 583.98 2647.28 592.436 2708.56 592.436C2799.23 592.436 2850.81 548.158 2850.81 480.974C2850.81 416.556 2803.23 387.96 2721.03 371.049C2664.22 359.211 2642.67 350.14 2642.67 330.615C2642.67 311.705 2660.37 299.405 2694.85 299.405C2730.11 299.405 2770.6 309.091 2805.08 322.159L2835.1 255.743C2796.62 240.061 2752.28 226.993 2696.86 226.993C2614.65 226.993 2561.84 271.271 2561.84 335.227C2561.84 403.488 2617.26 428.24 2693.62 445.152C2748.43 456.99 2768.6 466.061 2768.6 486.201C2768.6 504.496 2752.28 520.178 2710.56 520.178C2666.22 520.178 2632.97 510.338 2589.24 491.428L2555.38 558.613Z" fill="#0E0E0E"/>
<path d="M2503.49 316.317V241.445H2404.35V104H2313.06V241.445H2262.87V316.317H2313.06V488.814C2313.06 563.071 2360.63 600.276 2420.05 600.276C2470.86 600.276 2498.26 588.592 2502.26 587.208V519.562C2489.79 520.792 2476.09 522.791 2460.54 522.791C2414.82 522.791 2404.35 504.496 2404.35 441.308V316.317H2503.49Z" fill="#0E0E0E"/>
<path d="M2063.2 226.993C2027.33 226.993 1994.69 237.448 1968.67 255.743V233.604H1877.99V587.209H1968.67V336.457C1988.84 318.93 2015.01 308.476 2046.88 308.476C2097.07 308.476 2123.85 335.227 2123.85 389.805V587.209H2214.53V389.805C2214.53 275.268 2166.96 226.993 2063.2 226.993Z" fill="#0E0E0E"/>
<path d="M1830.58 436.081C1830.58 430.239 1831.19 423.013 1831.19 415.941C1831.19 305.862 1767.92 226.993 1658.92 226.993C1552.08 226.993 1477.73 308.476 1477.73 410.099C1477.73 510.953 1552.08 592.436 1658.92 592.436C1728.05 592.436 1786.24 563.686 1818.72 519.409L1760.69 471.288C1741.13 498.039 1706.65 514.95 1669.39 514.95C1615.36 514.95 1578.1 482.357 1568.4 436.081H1830.58ZM1658.92 299.405C1719.58 299.405 1741.13 337.841 1744.37 378.121H1569.02C1577.48 334.458 1611.35 299.405 1658.92 299.405Z" fill="#0E0E0E"/>
<path d="M1334.24 242.367L1238.33 442.846L1141.81 242.367H1046.66L1216.78 595.972H1259.89L1429.38 242.367H1334.24Z" fill="#0E0E0E"/>
<path d="M913.344 104V261.585C884.094 245.288 848.223 234.834 810.352 234.834C711.824 234.834 631 307.246 631 417.939C631 526.634 711.824 600.891 810.352 600.891C847.454 600.891 884.71 590.437 913.344 573.526V595.049H1004.64V104H913.344ZM826.67 518.794C766.014 518.794 721.061 477.745 721.061 417.939C721.061 359.979 766.014 316.317 826.67 316.317C861.155 316.317 891.791 328.001 913.344 346.296V488.199C891.791 507.109 860.539 518.794 826.67 518.794Z" fill="#0E0E0E"/>
<path fill-rule="evenodd" clip-rule="evenodd" d="M570.666 600.535H487.472C483.606 600.482 479.819 599.428 476.484 597.474C473.148 595.52 470.378 592.735 468.445 589.391L448.302 554.509C447.038 552.333 446.37 549.864 446.365 547.349C446.36 544.833 447.018 542.361 448.274 540.181C449.53 538.001 451.338 536.189 453.518 534.928C455.697 533.668 458.171 533.003 460.689 533H543.939C547.814 533.013 551.616 534.052 554.958 536.009C558.3 537.967 561.063 540.774 562.966 544.144L583.109 579.026C584.358 581.208 585.012 583.679 585.006 586.193C585 588.706 584.334 591.174 583.075 593.35C581.816 595.527 580.008 597.335 577.83 598.596C575.653 599.857 573.183 600.525 570.666 600.535Z" fill="#0E0E0E"/>
<path fill-rule="evenodd" clip-rule="evenodd" d="M477.214 398.475L338.39 158.147L338.836 157.423L278.463 53L5.72515 524.629C-0.377241 536.564 -1.6562 550.384 2.1525 563.234C5.9612 576.083 14.5666 586.981 26.1909 593.676C37.8152 600.37 51.5704 602.351 64.6149 599.207C77.6594 596.064 88.9966 588.037 96.2845 576.785L278.017 262.625L356.413 398.475H273.33C259.474 398.49 246.19 403.997 236.397 413.787C226.604 423.577 221.104 436.849 221.104 450.687C221.118 464.515 226.625 477.772 236.417 487.55C246.208 497.328 259.483 502.828 273.33 502.842H537.531L477.214 398.475Z" fill="#0E0E0E"/>
</svg>
