<svg width="1024" height="1024" viewBox="0 0 1024 1024" fill="none" xmlns="http://www.w3.org/2000/svg">
<rect width="1024" height="1024" fill="#0E0E0E"/>
<path fill-rule="evenodd" clip-rule="evenodd" d="M726.234 689.86H665.044C662.2 689.821 659.415 689.046 656.962 687.609C654.508 686.172 652.471 684.123 651.049 681.663L636.234 656.007C635.304 654.407 634.812 652.591 634.809 650.741C634.805 648.891 635.29 647.073 636.213 645.469C637.137 643.865 638.467 642.533 640.07 641.606C641.673 640.678 643.492 640.189 645.345 640.187H706.576C709.426 640.197 712.222 640.961 714.68 642.4C717.139 643.84 719.171 645.905 720.57 648.384L735.386 674.04C736.304 675.645 736.785 677.463 736.781 679.311C736.776 681.16 736.287 682.975 735.361 684.576C734.435 686.176 733.105 687.507 731.503 688.434C729.902 689.361 728.085 689.853 726.234 689.86Z" fill="white"/>
<path fill-rule="evenodd" clip-rule="evenodd" d="M658.614 541.101L556.507 364.337L556.836 363.804L512.431 287L311.828 633.889C307.34 642.668 306.399 652.832 309.201 662.283C312.002 671.734 318.331 679.75 326.881 684.674C335.431 689.598 345.548 691.054 355.142 688.742C364.737 686.43 373.076 680.526 378.436 672.25L512.102 441.182L569.763 541.101H508.655C498.463 541.112 488.693 545.163 481.49 552.364C474.288 559.564 470.242 569.326 470.242 579.503C470.253 589.674 474.303 599.425 481.505 606.617C488.706 613.809 498.471 617.854 508.655 617.865H702.978L658.614 541.101Z" fill="white"/>
</svg>
