<svg width="2851" height="599" viewBox="0 0 2851 599" fill="none" xmlns="http://www.w3.org/2000/svg">
<path d="M2555.38 505.613C2607.56 530.98 2647.28 539.436 2708.56 539.436C2799.23 539.436 2850.81 495.158 2850.81 427.974C2850.81 363.556 2803.23 334.96 2721.03 318.049C2664.22 306.211 2642.67 297.14 2642.67 277.615C2642.67 258.705 2660.37 246.405 2694.85 246.405C2730.11 246.405 2770.6 256.091 2805.08 269.159L2835.1 202.743C2796.62 187.061 2752.28 173.993 2696.86 173.993C2614.65 173.993 2561.84 218.271 2561.84 282.227C2561.84 350.488 2617.26 375.24 2693.62 392.152C2748.43 403.99 2768.6 413.061 2768.6 433.201C2768.6 451.496 2752.28 467.178 2710.56 467.178C2666.22 467.178 2632.97 457.338 2589.24 438.428L2555.38 505.613Z" fill="#0E0E0E"/>
<path d="M2503.49 263.317V188.445H2404.35V51H2313.06V188.445H2262.87V263.317H2313.06V435.814C2313.06 510.071 2360.63 547.276 2420.05 547.276C2470.86 547.276 2498.26 535.592 2502.26 534.208V466.562C2489.79 467.792 2476.09 469.791 2460.54 469.791C2414.82 469.791 2404.35 451.496 2404.35 388.308V263.317H2503.49Z" fill="#0E0E0E"/>
<path d="M2063.2 173.993C2027.33 173.993 1994.69 184.448 1968.67 202.743V180.604H1877.99V534.209H1968.67V283.457C1988.84 265.93 2015.01 255.476 2046.88 255.476C2097.07 255.476 2123.85 282.227 2123.85 336.805V534.209H2214.53V336.805C2214.53 222.268 2166.96 173.993 2063.2 173.993Z" fill="#0E0E0E"/>
<path d="M1830.58 383.081C1830.58 377.239 1831.19 370.013 1831.19 362.941C1831.19 252.862 1767.92 173.993 1658.92 173.993C1552.08 173.993 1477.73 255.476 1477.73 357.099C1477.73 457.953 1552.08 539.436 1658.92 539.436C1728.05 539.436 1786.24 510.686 1818.72 466.409L1760.69 418.288C1741.13 445.039 1706.65 461.95 1669.39 461.95C1615.36 461.95 1578.1 429.357 1568.4 383.081H1830.58ZM1658.92 246.405C1719.58 246.405 1741.13 284.841 1744.37 325.121H1569.02C1577.48 281.458 1611.35 246.405 1658.92 246.405Z" fill="#0E0E0E"/>
<path d="M1334.24 189.367L1238.33 389.845L1141.81 189.367H1046.66L1216.78 542.972H1259.89L1429.38 189.367H1334.24Z" fill="#0E0E0E"/>
<path d="M913.344 51V208.585C884.094 192.288 848.223 181.834 810.352 181.834C711.824 181.834 631 254.246 631 364.939C631 473.634 711.824 547.891 810.352 547.891C847.454 547.891 884.71 537.437 913.344 520.526V542.049H1004.64V51H913.344ZM826.67 465.794C766.014 465.794 721.061 424.745 721.061 364.939C721.061 306.979 766.014 263.317 826.67 263.317C861.155 263.317 891.791 275.001 913.344 293.296V435.199C891.791 454.109 860.539 465.794 826.67 465.794Z" fill="#0E0E0E"/>
<path fill-rule="evenodd" clip-rule="evenodd" d="M570.666 547.535H487.472C483.606 547.482 479.819 546.428 476.484 544.474C473.148 542.52 470.378 539.735 468.445 536.391L448.302 501.509C447.038 499.333 446.37 496.864 446.365 494.349C446.36 491.833 447.018 489.361 448.274 487.181C449.53 485.001 451.338 483.189 453.518 481.928C455.697 480.668 458.171 480.003 460.689 480H543.939C547.814 480.013 551.616 481.052 554.958 483.009C558.3 484.967 561.063 487.774 562.966 491.144L583.109 526.026C584.358 528.208 585.012 530.679 585.006 533.193C585 535.706 584.334 538.174 583.075 540.35C581.816 542.527 580.008 544.335 577.83 545.596C575.653 546.857 573.183 547.525 570.666 547.535Z" fill="#0E0E0E"/>
<path fill-rule="evenodd" clip-rule="evenodd" d="M477.214 345.475L338.39 105.147L338.836 104.423L278.463 0L5.72515 471.629C-0.377243 483.564 -1.6562 497.384 2.1525 510.234C5.9612 523.083 14.5666 533.981 26.1909 540.676C37.8152 547.37 51.5704 549.351 64.6149 546.207C77.6594 543.064 88.9966 535.037 96.2845 523.785L278.017 209.625L356.413 345.475H273.33C259.474 345.49 246.19 350.997 236.397 360.787C226.604 370.577 221.104 383.849 221.104 397.687C221.118 411.515 226.625 424.772 236.417 434.55C246.208 444.328 259.483 449.828 273.33 449.842H537.531L477.214 345.475Z" fill="#0E0E0E"/>
</svg>
