<svg width="450" height="450" viewBox="0 0 450 450" fill="none" xmlns="http://www.w3.org/2000/svg">
<style>
  path {
    fill: #0E0E0E;
  }
  @media (prefers-color-scheme: dark) {
    path {
      fill: #fff;
    }
  }
</style>
<path fill-rule="evenodd" clip-rule="evenodd" d="M439.234 402.86H378.044C375.2 402.821 372.415 402.046 369.961 400.609C367.508 399.172 365.471 397.123 364.049 394.663L349.234 369.007C348.304 367.407 347.812 365.591 347.809 363.741C347.805 361.891 348.289 360.073 349.213 358.469C350.137 356.865 351.467 355.533 353.07 354.606C354.673 353.678 356.492 353.189 358.344 353.187H419.576C422.426 353.197 425.222 353.961 427.68 355.4C430.139 356.84 432.171 358.905 433.57 361.384L448.386 387.04C449.304 388.645 449.785 390.463 449.781 392.311C449.776 394.16 449.287 395.975 448.361 397.576C447.435 399.176 446.105 400.507 444.503 401.434C442.902 402.361 441.085 402.853 439.234 402.86Z" />
<path fill-rule="evenodd" clip-rule="evenodd" d="M371.614 254.101L269.508 77.337L269.836 76.8042L225.431 0L24.8285 346.889C20.3401 355.668 19.3994 365.832 22.2007 375.283C25.0021 384.734 31.3314 392.75 39.8813 397.674C48.4311 402.598 58.5482 404.054 68.1426 401.742C77.737 399.43 86.0757 393.526 91.436 385.25L225.103 154.182L282.763 254.101H221.655C211.464 254.112 201.693 258.163 194.49 265.364C187.288 272.564 183.242 282.326 183.242 292.503C183.253 302.674 187.303 312.425 194.505 319.617C201.706 326.809 211.471 330.854 221.655 330.865H415.978L371.614 254.101Z" />
</svg>
